<svg width="281" height="33" viewBox="0 0 281 33" fill="none" xmlns="http://www.w3.org/2000/svg">
<path d="M55.1866 21.6L56.8666 23.2C53.8266 28.64 50.3332 31.36 46.3866 31.36C44.7866 31.36 43.5332 30.9333 42.6266 30.08C41.7732 29.1733 41.3466 28 41.3466 26.56C41.3466 25.0667 42.2266 22.5333 43.9866 18.96C45.7466 15.3867 46.6799 12.6667 46.7866 10.8C46.8399 9.94667 46.5732 9.25333 45.9866 8.72C45.4532 8.18666 44.7066 7.92 43.7466 7.92C42.7866 7.92 41.7999 8.16 40.7866 8.64C39.8266 9.06667 38.8666 9.78667 37.9066 10.8C36.9999 11.8133 36.1466 12.8 35.3466 13.76C34.5999 14.72 33.7466 16.08 32.7866 17.84C31.8799 19.6 31.1066 21.0667 30.4666 22.24C29.3466 24.4267 27.7466 27.7067 25.6666 32.08L20.8666 30.4C20.8666 30.24 21.7466 27.2267 23.5066 21.36C25.2666 15.4933 26.1466 12 26.1466 10.88C26.1466 9.76 25.8799 8.96 25.3466 8.48C24.8132 7.94667 24.1466 7.68 23.3466 7.68C20.9466 7.68 17.6132 10.6667 13.3466 16.64C9.13323 22.6133 6.4399 27.7067 5.26656 31.92L0.706563 30.4C0.973229 27.5733 2.22656 22.5067 4.46656 15.2C6.70656 7.84 8.5999 2.82666 10.1466 0.159997L13.7466 1.44C12.0932 5.12 10.9466 8.24 10.3066 10.8C9.66656 13.3067 9.10656 16 8.62656 18.88C13.2132 12.32 17.0532 7.73333 20.1466 5.12C23.2399 2.45333 26.0399 1.12 28.5466 1.12C31.2666 1.12 32.6266 2.48 32.6266 5.2C32.6266 6.26666 32.1466 8.37333 31.1866 11.52C30.2799 14.6667 29.5599 17.1467 29.0266 18.96C36.3866 7.12 42.9732 1.2 48.7866 1.2C50.2266 1.2 51.3732 1.65333 52.2266 2.56C53.0799 3.41333 53.5066 4.72 53.5066 6.48C53.5066 8.18667 52.4932 11.04 50.4666 15.04C48.4932 19.04 47.5066 21.5733 47.5066 22.64C47.5066 23.6533 47.7199 24.4 48.1466 24.88C48.5732 25.36 49.1066 25.6 49.7466 25.6C51.1332 25.6 52.9466 24.2667 55.1866 21.6ZM82.1609 22.56L84.0009 24C82.3476 26.2933 80.0809 28.2133 77.2009 29.76C74.3209 31.2533 71.5209 32 68.8009 32C66.0809 32 63.8943 31.2 62.2409 29.6C60.5876 28 59.7609 25.8933 59.7609 23.28C59.7609 18.3733 62.3476 13.5467 67.5209 8.8C72.7476 4.05333 78.0276 1.68 83.3609 1.68C86.8809 1.68 88.6409 3.06667 88.6409 5.84C88.6409 8.72 86.7743 11.6267 83.0409 14.56C79.3609 17.4933 74.1609 20.16 67.4409 22.56C67.9209 23.7867 68.6676 24.7467 69.6809 25.44C70.6943 26.1333 71.7343 26.48 72.8009 26.48C75.0943 26.48 78.2143 25.1733 82.1609 22.56ZM67.0409 20.16C71.3609 18.6667 75.0676 16.8 78.1609 14.56C81.2543 12.32 82.8009 10.2667 82.8009 8.4C82.8009 7.70666 82.5343 7.09333 82.0009 6.56C81.4676 6.02667 80.8543 5.76 80.1609 5.76C77.6543 5.76 74.9343 7.33333 72.0009 10.48C69.1209 13.5733 67.4676 16.8 67.0409 20.16ZM145.39 21.6L147.07 23.2C144.03 28.64 140.536 31.36 136.59 31.36C134.99 31.36 133.736 30.9333 132.83 30.08C131.976 29.1733 131.55 28 131.55 26.56C131.55 25.0667 132.43 22.5333 134.19 18.96C135.95 15.3867 136.883 12.6667 136.99 10.8C137.043 9.94667 136.776 9.25333 136.19 8.72C135.656 8.18666 134.91 7.92 133.95 7.92C132.99 7.92 132.003 8.16 130.99 8.64C130.03 9.06667 129.07 9.78667 128.11 10.8C127.203 11.8133 126.35 12.8 125.55 13.76C124.803 14.72 123.95 16.08 122.99 17.84C122.083 19.6 121.31 21.0667 120.67 22.24C119.55 24.4267 117.95 27.7067 115.87 32.08L111.07 30.4C111.07 30.24 111.95 27.2267 113.71 21.36C115.47 15.4933 116.35 12 116.35 10.88C116.35 9.76 116.083 8.96 115.55 8.48C115.016 7.94667 114.35 7.68 113.55 7.68C111.15 7.68 107.816 10.6667 103.55 16.64C99.3364 22.6133 96.643 27.7067 95.4697 31.92L90.9097 30.4C91.1764 27.5733 92.4297 22.5067 94.6697 15.2C96.9097 7.84 98.803 2.82666 100.35 0.159997L103.95 1.44C102.296 5.12 101.15 8.24 100.51 10.8C99.8697 13.3067 99.3097 16 98.8297 18.88C103.416 12.32 107.256 7.73333 110.35 5.12C113.443 2.45333 116.243 1.12 118.75 1.12C121.47 1.12 122.83 2.48 122.83 5.2C122.83 6.26666 122.35 8.37333 121.39 11.52C120.483 14.6667 119.763 17.1467 119.23 18.96C126.59 7.12 133.176 1.2 138.99 1.2C140.43 1.2 141.576 1.65333 142.43 2.56C143.283 3.41333 143.71 4.72 143.71 6.48C143.71 8.18667 142.696 11.04 140.67 15.04C138.696 19.04 137.71 21.5733 137.71 22.64C137.71 23.6533 137.923 24.4 138.35 24.88C138.776 25.36 139.31 25.6 139.95 25.6C141.336 25.6 143.15 24.2667 145.39 21.6ZM172.364 22.56L174.204 24C172.551 26.2933 170.284 28.2133 167.404 29.76C164.524 31.2533 161.724 32 159.004 32C156.284 32 154.097 31.2 152.444 29.6C150.791 28 149.964 25.8933 149.964 23.28C149.964 18.3733 152.551 13.5467 157.724 8.8C162.951 4.05333 168.231 1.68 173.564 1.68C177.084 1.68 178.844 3.06667 178.844 5.84C178.844 8.72 176.977 11.6267 173.244 14.56C169.564 17.4933 164.364 20.16 157.644 22.56C158.124 23.7867 158.871 24.7467 159.884 25.44C160.897 26.1333 161.937 26.48 163.004 26.48C165.297 26.48 168.417 25.1733 172.364 22.56ZM157.244 20.16C161.564 18.6667 165.271 16.8 168.364 14.56C171.457 12.32 173.004 10.2667 173.004 8.4C173.004 7.70666 172.737 7.09333 172.204 6.56C171.671 6.02667 171.057 5.76 170.364 5.76C167.857 5.76 165.137 7.33333 162.204 10.48C159.324 13.5733 157.671 16.8 157.244 20.16ZM205.64 0.719997L204.92 3.84C204.013 3.73333 202.84 3.68 201.4 3.68C196.066 3.68 193.4 5.44 193.4 8.96C193.4 9.70667 194.466 11.8933 196.6 15.52C198.786 19.1467 199.88 21.5733 199.88 22.8C199.88 25.68 198.893 27.9467 196.92 29.6C195 31.2 192.413 32 189.16 32C184.68 32 181.08 29.52 178.36 24.56L181.4 22.4C182.146 22.9867 182.946 23.7067 183.8 24.56C184.653 25.36 185.293 25.92 185.72 26.24C186.733 27.1467 187.853 27.6 189.08 27.6C190.306 27.6 191.373 27.1733 192.28 26.32C193.186 25.4133 193.64 24.32 193.64 23.04C193.64 21.7067 192.466 19.2533 190.12 15.68C187.826 12.1067 186.68 9.6 186.68 8.16C186.68 5.54667 187.773 3.54667 189.96 2.16C192.2 0.773332 195.106 0.0799985 198.68 0.0799985C202.306 0.0799985 204.626 0.293331 205.64 0.719997ZM241.284 23.92L243.124 25.28C242.377 26.88 240.991 28.4 238.964 29.84C236.991 31.28 235.177 32 233.524 32C230.377 32 228.804 30.3467 228.804 27.04C228.804 25.4933 229.204 23.6533 230.004 21.52L227.044 24.56C224.164 27.4933 221.657 29.4667 219.524 30.48C217.444 31.4933 215.391 32 213.364 32C211.337 32 209.791 31.44 208.724 30.32C207.711 29.1467 207.204 27.5467 207.204 25.52C207.204 21.7867 208.644 18.1067 211.524 14.48C214.404 10.8 218.084 7.81333 222.564 5.52C227.044 3.22667 231.524 2.05333 236.004 2L236.164 4.64L232.804 5.36C227.951 6.42667 223.657 8.56 219.924 11.76C216.244 14.96 214.404 18.16 214.404 21.36C214.404 24.5067 215.684 26.08 218.244 26.08C220.644 26.08 223.604 24.4 227.124 21.04C230.644 17.68 233.577 13.7333 235.924 9.2L239.284 11.2C235.977 17.8667 234.324 22.1067 234.324 23.92C234.324 24.6667 234.564 25.3067 235.044 25.84C235.577 26.32 236.084 26.56 236.564 26.56C237.097 26.56 237.444 26.5333 237.604 26.48C237.764 26.4267 237.924 26.3733 238.084 26.32C238.244 26.2133 238.431 26.08 238.644 25.92C238.911 25.76 239.124 25.6 239.284 25.44C239.497 25.28 239.817 25.04 240.244 24.72C240.671 24.4 241.017 24.1333 241.284 23.92ZM278.984 22.32L280.664 23.6C279.491 25.9467 277.864 27.92 275.784 29.52C273.757 31.12 271.917 31.92 270.264 31.92C268.611 31.92 267.304 31.44 266.344 30.48C265.384 29.52 264.904 28.32 264.904 26.88C264.904 25.44 265.811 22.9333 267.624 19.36C269.491 15.7333 270.424 13.0667 270.424 11.36C270.424 10.6133 270.104 9.94667 269.464 9.36C268.877 8.72 268.157 8.4 267.304 8.4C264.584 8.4 261.837 10.48 259.064 14.64C256.291 18.7467 253.197 24.6933 249.784 32.48L244.984 30.8C245.997 24.6133 247.437 18.5867 249.304 12.72C251.224 6.8 252.984 2.56 254.584 -4.76837e-07L257.864 1.04C256.371 4.82667 254.477 11.36 252.184 20.64C259.544 8.05333 266.317 1.76 272.504 1.76C273.837 1.76 274.931 2.21333 275.784 3.12C276.691 4.02667 277.144 5.09333 277.144 6.32C277.144 7.54667 276.984 8.66667 276.664 9.68C276.344 10.64 275.331 12.9333 273.624 16.56C271.971 20.1333 271.144 22.3733 271.144 23.28C271.144 24.1867 271.411 24.9067 271.944 25.44C272.477 25.92 272.984 26.16 273.464 26.16C273.944 26.16 274.344 26.08 274.664 25.92C274.984 25.76 275.331 25.52 275.704 25.2C276.131 24.88 276.504 24.5867 276.824 24.32C277.144 24.0533 277.517 23.7067 277.944 23.28C278.424 22.8 278.771 22.48 278.984 22.32Z" fill="#201E1E"/>
</svg>
